<mxfile host="65bd71144e">
    <diagram name="PÃ¡gina-1" id="HIULRboa3lXPiwIwBiHN">
        <mxGraphModel dx="996" dy="501" grid="1" gridSize="10" guides="1" tooltips="1" connect="1" arrows="1" fold="1" page="1" pageScale="1" pageWidth="827" pageHeight="1169" math="0" shadow="0">
            <root>
                <mxCell id="0"/>
                <mxCell id="1" parent="0"/>
                <mxCell id="hQIS35PMeW0RvFV32b4x-2" value="AWS Cloud" style="points=[[0,0],[0.25,0],[0.5,0],[0.75,0],[1,0],[1,0.25],[1,0.5],[1,0.75],[1,1],[0.75,1],[0.5,1],[0.25,1],[0,1],[0,0.75],[0,0.5],[0,0.25]];outlineConnect=0;gradientColor=none;html=1;whiteSpace=wrap;fontSize=12;fontStyle=0;container=1;pointerEvents=0;collapsible=0;recursiveResize=0;shape=mxgraph.aws4.group;grIcon=mxgraph.aws4.group_aws_cloud_alt;strokeColor=#232F3E;fillColor=none;verticalAlign=top;align=left;spacingLeft=30;fontColor=#232F3E;dashed=0;" parent="1" vertex="1">
                    <mxGeometry x="80" y="40" width="697" height="600" as="geometry"/>
                </mxCell>
                <mxCell id="hQIS35PMeW0RvFV32b4x-7" value="Instance 01" style="sketch=0;points=[[0,0,0],[0.25,0,0],[0.5,0,0],[0.75,0,0],[1,0,0],[0,1,0],[0.25,1,0],[0.5,1,0],[0.75,1,0],[1,1,0],[0,0.25,0],[0,0.5,0],[0,0.75,0],[1,0.25,0],[1,0.5,0],[1,0.75,0]];outlineConnect=0;fontColor=#232F3E;fillColor=#ED7100;strokeColor=#ffffff;dashed=0;verticalLabelPosition=bottom;verticalAlign=top;align=center;html=1;fontSize=12;fontStyle=0;aspect=fixed;shape=mxgraph.aws4.resourceIcon;resIcon=mxgraph.aws4.ec2;" parent="hQIS35PMeW0RvFV32b4x-2" vertex="1">
                    <mxGeometry x="517" y="151" width="78" height="78" as="geometry"/>
                </mxCell>
                <mxCell id="hQIS35PMeW0RvFV32b4x-16" value="" style="edgeStyle=orthogonalEdgeStyle;rounded=0;orthogonalLoop=1;jettySize=auto;html=1;" parent="hQIS35PMeW0RvFV32b4x-2" source="hQIS35PMeW0RvFV32b4x-6" target="hQIS35PMeW0RvFV32b4x-8" edge="1">
                    <mxGeometry relative="1" as="geometry">
                        <mxPoint x="438" y="290" as="targetPoint"/>
                    </mxGeometry>
                </mxCell>
                <mxCell id="hQIS35PMeW0RvFV32b4x-8" value="Instance 02" style="sketch=0;points=[[0,0,0],[0.25,0,0],[0.5,0,0],[0.75,0,0],[1,0,0],[0,1,0],[0.25,1,0],[0.5,1,0],[0.75,1,0],[1,1,0],[0,0.25,0],[0,0.5,0],[0,0.75,0],[1,0.25,0],[1,0.5,0],[1,0.75,0]];outlineConnect=0;fontColor=#232F3E;fillColor=#ED7100;strokeColor=#ffffff;dashed=0;verticalLabelPosition=bottom;verticalAlign=top;align=center;html=1;fontSize=12;fontStyle=0;aspect=fixed;shape=mxgraph.aws4.resourceIcon;resIcon=mxgraph.aws4.ec2;" parent="hQIS35PMeW0RvFV32b4x-2" vertex="1">
                    <mxGeometry x="517" y="251" width="78" height="78" as="geometry"/>
                </mxCell>
                <mxCell id="Y8f5GcSq3uv2XuupNlYC-11" value="" style="edgeStyle=orthogonalEdgeStyle;rounded=0;orthogonalLoop=1;jettySize=auto;html=1;" parent="hQIS35PMeW0RvFV32b4x-2" source="hQIS35PMeW0RvFV32b4x-10" target="Y8f5GcSq3uv2XuupNlYC-5" edge="1">
                    <mxGeometry relative="1" as="geometry"/>
                </mxCell>
                <mxCell id="hQIS35PMeW0RvFV32b4x-10" value="Auto Scaling group" style="points=[[0,0],[0.25,0],[0.5,0],[0.75,0],[1,0],[1,0.25],[1,0.5],[1,0.75],[1,1],[0.75,1],[0.5,1],[0.25,1],[0,1],[0,0.75],[0,0.5],[0,0.25]];outlineConnect=0;gradientColor=none;html=1;whiteSpace=wrap;fontSize=12;fontStyle=0;container=1;pointerEvents=0;collapsible=0;recursiveResize=0;shape=mxgraph.aws4.groupCenter;grIcon=mxgraph.aws4.group_auto_scaling_group;grStroke=1;strokeColor=#D86613;fillColor=none;verticalAlign=top;align=center;fontColor=#D86613;dashed=1;spacingTop=25;" parent="hQIS35PMeW0RvFV32b4x-2" vertex="1">
                    <mxGeometry x="489" y="90" width="130" height="270" as="geometry"/>
                </mxCell>
                <mxCell id="hQIS35PMeW0RvFV32b4x-11" value="EC2 instance contents" style="points=[[0,0],[0.25,0],[0.5,0],[0.75,0],[1,0],[1,0.25],[1,0.5],[1,0.75],[1,1],[0.75,1],[0.5,1],[0.25,1],[0,1],[0,0.75],[0,0.5],[0,0.25]];outlineConnect=0;gradientColor=none;html=1;whiteSpace=wrap;fontSize=12;fontStyle=0;container=1;pointerEvents=0;collapsible=0;recursiveResize=0;shape=mxgraph.aws4.group;grIcon=mxgraph.aws4.group_ec2_instance_contents;strokeColor=#D86613;fillColor=none;verticalAlign=top;align=left;spacingLeft=30;fontColor=#D86613;dashed=0;" parent="hQIS35PMeW0RvFV32b4x-2" vertex="1">
                    <mxGeometry x="297" y="40" width="370" height="518" as="geometry"/>
                </mxCell>
                <mxCell id="hQIS35PMeW0RvFV32b4x-6" value="Load Balancer" style="outlineConnect=0;dashed=0;verticalLabelPosition=bottom;verticalAlign=top;align=center;html=1;shape=mxgraph.aws3.classic_load_balancer;fillColor=#F58534;gradientColor=none;" parent="hQIS35PMeW0RvFV32b4x-11" vertex="1">
                    <mxGeometry x="40" y="164" width="66" height="72" as="geometry"/>
                </mxCell>
                <mxCell id="Y8f5GcSq3uv2XuupNlYC-5" value="Database Instance" style="sketch=0;outlineConnect=0;fontColor=#232F3E;gradientColor=none;fillColor=#ED7100;strokeColor=none;dashed=0;verticalLabelPosition=bottom;verticalAlign=top;align=center;html=1;fontSize=12;fontStyle=0;aspect=fixed;pointerEvents=1;shape=mxgraph.aws4.db_on_instance2;" parent="hQIS35PMeW0RvFV32b4x-11" vertex="1">
                    <mxGeometry x="218" y="378" width="78" height="78" as="geometry"/>
                </mxCell>
                <mxCell id="Y8f5GcSq3uv2XuupNlYC-6" value="" style="edgeStyle=orthogonalEdgeStyle;rounded=0;orthogonalLoop=1;jettySize=auto;html=1;" parent="hQIS35PMeW0RvFV32b4x-11" source="Y8f5GcSq3uv2XuupNlYC-1" target="Y8f5GcSq3uv2XuupNlYC-5" edge="1">
                    <mxGeometry relative="1" as="geometry"/>
                </mxCell>
                <mxCell id="Y8f5GcSq3uv2XuupNlYC-12" style="edgeStyle=orthogonalEdgeStyle;rounded=0;orthogonalLoop=1;jettySize=auto;html=1;" parent="hQIS35PMeW0RvFV32b4x-11" source="Y8f5GcSq3uv2XuupNlYC-1" edge="1">
                    <mxGeometry relative="1" as="geometry">
                        <mxPoint x="73" y="238" as="targetPoint"/>
                    </mxGeometry>
                </mxCell>
                <mxCell id="Y8f5GcSq3uv2XuupNlYC-1" value="Bastion Host&lt;div&gt;&lt;br&gt;&lt;/div&gt;" style="sketch=0;points=[[0,0,0],[0.25,0,0],[0.5,0,0],[0.75,0,0],[1,0,0],[0,1,0],[0.25,1,0],[0.5,1,0],[0.75,1,0],[1,1,0],[0,0.25,0],[0,0.5,0],[0,0.75,0],[1,0.25,0],[1,0.5,0],[1,0.75,0]];outlineConnect=0;fontColor=#232F3E;fillColor=#ED7100;strokeColor=#ffffff;dashed=0;verticalLabelPosition=bottom;verticalAlign=top;align=center;html=1;fontSize=12;fontStyle=0;aspect=fixed;shape=mxgraph.aws4.resourceIcon;resIcon=mxgraph.aws4.ec2;" parent="hQIS35PMeW0RvFV32b4x-11" vertex="1">
                    <mxGeometry x="34" y="378" width="78" height="78" as="geometry"/>
                </mxCell>
                <mxCell id="hQIS35PMeW0RvFV32b4x-12" style="edgeStyle=orthogonalEdgeStyle;rounded=0;orthogonalLoop=1;jettySize=auto;html=1;exitX=0.5;exitY=1;exitDx=0;exitDy=0;" parent="hQIS35PMeW0RvFV32b4x-2" source="hQIS35PMeW0RvFV32b4x-11" target="hQIS35PMeW0RvFV32b4x-11" edge="1">
                    <mxGeometry relative="1" as="geometry"/>
                </mxCell>
                <mxCell id="hQIS35PMeW0RvFV32b4x-14" value="" style="edgeStyle=orthogonalEdgeStyle;rounded=0;orthogonalLoop=1;jettySize=auto;html=1;" parent="hQIS35PMeW0RvFV32b4x-2" source="hQIS35PMeW0RvFV32b4x-6" target="hQIS35PMeW0RvFV32b4x-7" edge="1">
                    <mxGeometry relative="1" as="geometry"/>
                </mxCell>
                <mxCell id="hQIS35PMeW0RvFV32b4x-19" value="" style="edgeStyle=orthogonalEdgeStyle;rounded=0;orthogonalLoop=1;jettySize=auto;html=1;entryX=1.05;entryY=0.825;entryDx=0;entryDy=0;entryPerimeter=0;" parent="hQIS35PMeW0RvFV32b4x-2" target="hQIS35PMeW0RvFV32b4x-18" edge="1">
                    <mxGeometry relative="1" as="geometry">
                        <mxPoint x="34" y="240.5" as="sourcePoint"/>
                    </mxGeometry>
                </mxCell>
                <mxCell id="hQIS35PMeW0RvFV32b4x-17" value="User" style="sketch=0;outlineConnect=0;fontColor=#232F3E;gradientColor=none;strokeColor=#232F3E;fillColor=#ffffff;dashed=0;verticalLabelPosition=bottom;verticalAlign=top;align=center;html=1;fontSize=12;fontStyle=0;aspect=fixed;shape=mxgraph.aws4.resourceIcon;resIcon=mxgraph.aws4.user;" parent="hQIS35PMeW0RvFV32b4x-2" vertex="1">
                    <mxGeometry x="30" y="210.5" width="60" height="60" as="geometry"/>
                </mxCell>
                <mxCell id="hQIS35PMeW0RvFV32b4x-18" value="" style="shape=waypoint;sketch=0;size=6;pointerEvents=1;points=[];fillColor=#ffffff;resizable=0;rotatable=0;perimeter=centerPerimeter;snapToPoint=1;verticalAlign=top;strokeColor=#232F3E;fontColor=#232F3E;gradientColor=none;dashed=0;fontStyle=0;" parent="hQIS35PMeW0RvFV32b4x-2" vertex="1">
                    <mxGeometry x="317" y="230.5" width="20" height="20" as="geometry"/>
                </mxCell>
                <mxCell id="Y8f5GcSq3uv2XuupNlYC-10" style="edgeStyle=orthogonalEdgeStyle;rounded=0;orthogonalLoop=1;jettySize=auto;html=1;" parent="hQIS35PMeW0RvFV32b4x-2" source="Y8f5GcSq3uv2XuupNlYC-7" target="Y8f5GcSq3uv2XuupNlYC-1" edge="1">
                    <mxGeometry relative="1" as="geometry"/>
                </mxCell>
                <mxCell id="Y8f5GcSq3uv2XuupNlYC-7" value="Admin" style="sketch=0;outlineConnect=0;fontColor=#232F3E;gradientColor=none;strokeColor=#232F3E;fillColor=#ffffff;dashed=0;verticalLabelPosition=bottom;verticalAlign=top;align=center;html=1;fontSize=12;fontStyle=0;aspect=fixed;shape=mxgraph.aws4.resourceIcon;resIcon=mxgraph.aws4.user;" parent="hQIS35PMeW0RvFV32b4x-2" vertex="1">
                    <mxGeometry x="30" y="427" width="60" height="60" as="geometry"/>
                </mxCell>
            </root>
        </mxGraphModel>
    </diagram>
</mxfile>